<?xml version="1.0" encoding="UTF-8"?>
<svg id="Layer_1" data-name="Layer 1" xmlns="http://www.w3.org/2000/svg" version="1.1" viewBox="0 0 720 720">
  <defs>
    <style>
      .cls-1 {
        fill: none;
        stroke: #231f20;
        stroke-miterlimit: 10;
      }
    </style>
  </defs>
  <path class="cls-1" d="M74.8,107.9c13.9-26.5,54.6-33.4,76.5-13.1,14.5,13.5,22.6,36.7,42.1,39.6,22.1,3.4,36.4-21.5,53.4-36.1,12.1-10.4,28-16.3,43.9-16.2,5.7,0,11.6.8,16.6,3.5,17,9,19.2,35.3,36.7,43.4,18,8.3,37.2-8.2,49.7-23.6,12.5-15.4,29.5-33.2,48.6-27.6,14.9,4.4,21.9,20.9,31,33.5,8.7,12.2,21.4,22.2,36.2,24.5s31.4-4.5,37.8-18c3.9-8.3,3.9-18.2,8.9-25.9,4.6-7.1,12.7-11.2,20.9-13.5,11.7-3.3,24.8-3.4,35.7,2.1,10.9,5.6,18.8,17.7,17.1,29.7-2.4,18.2-22.6,27.4-39.8,33.8-17.2,6.4-37.2,17-37.9,35.3-.5,12,8.4,22.9,19.3,28.1,10.8,5.2,23.3,5.8,35.3,5.6,3.5,0,7.2-.2,10.3-1.9,9.4-5,7.8-19.4,1.6-28.1-13.9-19.5-40-24.9-63.6-28.6-22-3.4-46.3-6.3-64.9,5.9-16.4,10.8-24.5,30.9-40,42.9-23.1,17.8-61,10.7-76.1-14.1-3.4-5.7-5.8-12-9.9-17.2-9-11.5-26.2-15.7-39.5-9.6-22.3,10.4-29.6,43.6-53.6,48.6-18.5,3.8-34.8-11.5-47.8-25.3-12.9-13.7-30.4-28.4-48.4-22.9-14.5,4.4-22,19.8-32.1,31-12.6,13.9-35.7,21.6-50,9.4-11.2-9.6-11.1-29.1-.4-39.3s29.3-9.8,40.3,0c11,9.9,13.7,27.4,7.1,40.6-7.8,15.6-25.3,23.4-39.9,33-14.6,9.6-28.6,26.1-23.3,42.8,4.6,14.7,23.1,21.4,38.2,18.1,15.1-3.4,27.3-14.1,38.4-25s21.9-22.5,36.1-28.6c4.3-1.9,9-3.2,13.6-2.7,14.5,1.5,21.4,18,30.1,29.8,11.7,15.8,31.4,25.4,51,24.8,8.1-.3,16.5-2.3,22.8-7.4,11.2-9.1,13.5-25.5,23-36.4,14.8-17,46.7-13,56.8,7.1,4.1,8.1,5.1,17.9,11.2,24.5,8.8,9.5,23.7,8.5,36.5,6.8,12.5-1.7,26.7-4.4,33.4-15.1,3.2-5.1,4.1-11.2,6.4-16.7,8.8-20.5,39.9-26.6,55.8-10.9,5.4,5.4,8.9,12.4,13,18.9,11.1,17.8,29.5,33,50.5,32.9s41.3-21.6,34.4-41.4c-4.4-12.5-18.2-20.4-31.5-19.7s-25.4,8.9-33.1,19.7c-4.9,7-8.3,15.8-6.1,24.1,4.8,18.2,29.4,20.2,45.6,29.7,12.5,7.3,21.2,21.7,19.5,36.1-1.6,14.4-14.9,27.2-29.4,26.2-16.8-1.1-27.6-17.3-37.9-30.7-14.4-18.9-37.6-36.1-60.2-28.8-14.9,4.8-24.5,18.8-34.4,30.8-9.9,12.1-23.7,23.9-39.2,21.8-13.9-1.9-23.6-14.3-32.4-25.4-11.5-14.5-27.8-29.5-45.8-25.5-25.6,5.7-32.7,44.9-58.5,49.5-15.6,2.8-29.9-9-40.4-20.9s-21.1-25.7-36.6-29.1c-12.2-2.7-25.7,2.4-33.1,12.4-3.7,5-5.9,10.9-9.5,16-10,13.9-28.4,18.4-45.3,20.9-7.1,1.1-14.4,2-21.3,0-13.5-4-21.8-20.1-18-33.6s18.5-22.9,32.5-21.4,26.1,13,29.2,26.8c3.4,15.2-3.2,30.6-5.9,46-1.9,10.7-1.8,21.7.2,32.4,2.8,14.7,7.1,34.1-6.2,41-10.7,5.5-23.2-3.4-31-12.6-4.9-5.7-9.5-12.1-10.7-19.5-2-12.5,6.6-24.9,17.8-31s24.3-7.1,37-7.3c16.6-.3,33.3.6,49.8,2.6,12.6,1.6,26.2,4.3,34.6,13.9,11.8,13.3,6.8,37.2-9,45.5-15.7,8.3-37.6-.2-44.5-16.6-6.9-16.4,1.5-37.3,17.4-45.2,10.7-5.4,23.3-5.2,35.3-5,20.8.4,43.2,1.4,59.5,14.2,9.5,7.5,15.8,18.2,22.8,28.1,12.6,18,33.5,35.6,54.3,28.6,21.4-7.2,27.5-34.9,45.1-48.9,17.2-13.7,45.4-10.4,59,6.9,10.9,13.9,13.7,35.1,29.5,43.1,14.6,7.4,32.5-1.2,44-12.9,11.5-11.7,19.9-26.5,33.2-36s34.9-11.1,43.9,2.6c6.8,10.3,3.2,24.7-4.2,34.6-7.4,9.9-17.9,17-26.8,25.6-9.5,9.3-17.1,20.6-22.1,33-3.4,8.4-5.4,18.4-.6,26,8.2,13,29,8.7,40.4-1.6,11.5-10.3,18.9-28.3,10.3-41.1-7.6-11.4-24.7-12.9-37.2-7.3-12.5,5.7-21.7,16.7-30.7,27s-19,20.9-32.1,25c-12,3.8-25.7,1.4-35.8-6.1-11.8-8.9-17.7-23.4-26.7-35-9.1-11.7-25.4-20.9-38.2-13.5-13.2,7.6-13,26.5-20.4,39.8-9.9,17.9-36.7,23.6-53.1,11.3-15.9-11.9-20.5-35.7-38-45.1-10.4-5.6-23-4.7-34.8-3.7-4.7.4-9.7.9-13.5,3.7-8.9,6.4-6.6,19.9-9.1,30.6-4.1,18.1-24.8,29.4-43.1,26.6s-33.6-16.9-41.9-33.5c-2.7-5.4-4.9-11.3-8.9-15.7-9-9.8-24.1-10.1-37.4-9.7-6.2.2-12.9.6-17.5,4.7-10,8.8-2.4,25,5.6,35.6,14.4,19.2,28.8,38.4,43.2,57.6,3.5,4.7,7.2,9.8,7.9,15.7,1.1,10.1-6.9,18.7-14.5,25.4-7.7,6.7-18.4,13.4-27.3,8.5-6.3-3.5-8.6-11.4-10.2-18.5-2.7-11.7-5.4-23.9-3.2-35.7s10.7-23.4,22.6-25.2c17.3-2.6,30.6,15,36.8,31.3,6.2,16.3,11.1,35.4,26.3,44,11.4,6.4,26.3,4.6,37-2.8s17.5-19.7,20-32.5c2.5-12.6,3.4-28.8,15.5-33,4.5-1.6,9.5-.8,14.2,0,11.5,2,23.2,4.1,33.3,9.9,10.1,5.8,18.3,16.2,18.3,27.8,0,9.8-4.3,22.8,4.5,27.1,2.9,1.4,6.3,1.1,9.5.7,15.3-1.7,30.8-3.5,45.1-9.3,14.3-5.8,27.4-16.2,32.9-30.6,3.5-9.1,4.5-20.5,12.7-25.8,11.4-7.5,26.6,3.3,32.4,15.6,5.8,12.3,7.4,26.9,16.4,37.1,14.7,16.8,43.5,13.3,60.3-1.4,11.8-10.3,19.4-24.7,30.6-35.7,11.1-11.1,28.7-18.6,42.4-11,13.9,7.7,16.6,26.4,25.4,39.7,10.1,15.2,30.4,23.4,47.8,17.8,17.4-5.6,29.2-25.6,24.4-43.2-4.9-17.6-27-28.6-43.4-20.6-16.4,8-20.6,33.9-6.7,45.8,5.7,4.9,14.1,7,20.9,3.9,6.8-3.1,10.7-12.3,6.8-18.7s-15.3-6.4-18.1.5"/>
</svg>